<?xml version="1.0" encoding="iso-8859-1"?>
<!-- Generator: Adobe Illustrator 19.0.0, SVG Export Plug-In . SVG Version: 6.00 Build 0)  -->
<svg version="1.1" id="Capa_1" xmlns="http://www.w3.org/2000/svg" xmlns:xlink="http://www.w3.org/1999/xlink" x="0px" y="0px"
	 viewBox="0 0 468.293 468.293" style="enable-background:new 0 0 468.293 468.293;" xml:space="preserve">
<path style="fill:#3A556A;" d="M417.717,93.346H36.839c-8.117,0-14.361,6.244-14.361,14.361v260.995
	c0,8.117,6.244,14.361,14.361,14.361h380.878c8.117,0,14.361-6.244,14.361-14.361V107.707
	C432.702,99.59,425.834,93.346,417.717,93.346z"/>
<rect x="47.454" y="115.824" style="fill:#64798A;" width="357.776" height="245.385"/>
<circle style="fill:#EBF0F3;" cx="227.278" cy="105.21" r="7.493"/>
<path style="fill:#D5D6DB;" d="M0,383.688c0,24.976,19.98,44.956,44.956,44.956h367.141c24.976,0,44.956-19.98,44.956-44.956H0z"/>
<path style="fill:#64798A;" d="M294.712,413.659H162.341c-3.746,0-6.244-2.498-6.244-6.244v-2.498c0-3.746,2.498-6.244,6.244-6.244
	h132.371c3.746,0,6.244,2.498,6.244,6.244v2.498C300.956,410.537,298.459,413.659,294.712,413.659z"/>
<path style="fill:#FCD462;" d="M315.317,157.034c-2.498,52.449-8.117,151.727-87.415,171.083l0,0
	c-71.805-19.356-83.668-118.634-87.415-171.083c11.239,4.995,23.102,7.493,35.59,7.493c19.356,0,36.839-6.244,51.824-16.234l0,0
	c14.985,9.99,32.468,16.234,51.824,16.234C291.59,164.527,304.078,162.029,315.317,157.034z"/>
<path style="fill:#E1E6E9;" d="M294.712,175.766c-1.873,39.961-6.244,116.761-67.434,131.746l0,0
	c-55.571-14.985-64.312-91.161-67.434-131.746c8.117,3.746,17.483,5.62,27.473,5.62c14.985,0,28.722-4.995,39.961-12.488l0,0
	c11.239,8.117,24.976,12.488,39.961,12.488C277.229,181.385,286.595,179.512,294.712,175.766z"/>
<path style="fill:#3EA69B;" d="M445.815,39.649h-76.176c-12.488,0-22.478,9.99-22.478,22.478v144.234
	c0,12.488,9.99,22.478,22.478,22.478h76.176c12.488,0,22.478-9.99,22.478-22.478V61.502
	C468.293,49.015,458.302,39.649,445.815,39.649z"/>
<rect x="354.029" y="61.502" style="fill:#E1E6E9;" width="108.02" height="144.234"/>
<g>
	<path style="fill:#EBF0F3;" d="M423.961,52.761h-32.468c-0.624,0-1.873-0.624-1.873-1.873v-0.624c0-0.624,0.624-1.873,1.873-1.873
		h32.468c0.624,0,1.873,0.624,1.873,1.873v0.624C425.834,51.512,424.585,52.761,423.961,52.761z"/>
	<circle style="fill:#EBF0F3;" cx="430.829" cy="50.263" r="1.873"/>
	<path style="fill:#EBF0F3;" d="M420.839,221.346h-24.351c-1.873,0-3.746-1.873-3.746-3.746v-1.873c0-1.873,1.873-3.746,3.746-3.746
		h24.351c1.873,0,3.746,1.873,3.746,3.746v1.873C424.585,219.473,423.337,221.346,420.839,221.346z"/>
</g>
<g>
</g>
<g>
</g>
<g>
</g>
<g>
</g>
<g>
</g>
<g>
</g>
<g>
</g>
<g>
</g>
<g>
</g>
<g>
</g>
<g>
</g>
<g>
</g>
<g>
</g>
<g>
</g>
<g>
</g>
</svg>
